<svg xmlns="http://www.w3.org/2000/svg" version="1.1" xmlns:xlink="http://www.w3.org/1999/xlink" width="512" height="512" x="0" y="0" viewBox="0 0 1707 1707" style="enable-background:new 0 0 512 512" xml:space="preserve" fill-rule="evenodd" class=""><g><path d="M853 1707c-116 0-219-66-263-169-11-25 8-54 36-54h455c28 0 47 29 36 54-44 103-147 169-264 169zM569 778c-20 0-36-14-39-33-22-165 93-317 258-339 51-7 61 70 10 77-122 16-207 129-191 251 3 23-15 44-38 44zm284-583c-21 0-39-17-39-39V39c0-51 78-51 78 0v117c0 22-17 39-39 39zm316 85c-30 0-49-33-34-59l58-101c26-45 94-6 68 39l-59 101c-7 13-20 20-33 20zm231 230c-40 0-54-52-20-72l101-59c45-26 84 42 39 68l-101 58c-6 4-13 5-19 5zm201 316h-117c-51 0-51-78 0-78h117c51 0 51 78 0 78zm-100 374c-7 0-13-2-20-6l-101-58c-44-26-6-93 39-68l101 59c35 20 20 73-19 73zm-1295 0c-40 0-54-53-20-73l102-59c44-25 83 42 39 68l-102 58c-6 4-13 6-19 6zm17-374H106c-52 0-52-78 0-78h117c51 0 51 78 0 78zm84-316c-6 0-13-1-19-5l-102-58c-44-26-5-94 39-68l102 59c34 20 20 72-20 72zm231-230c-13 0-27-7-34-20l-58-101c-26-45 42-84 67-39l59 101c15 26-4 59-34 59zm541 1056H627c-20 0-37-16-39-36-31-360-207-297-207-590 0-260 212-472 472-472 261 0 473 212 473 472 0 293-177 230-208 590-2 20-18 36-39 36zm-417-78h382c41-344 204-299 204-548 0-217-177-394-395-394-217 0-394 177-394 394 0 249 162 204 203 548zm417 191H627c-51 0-51-78 0-78h452c52 0 52 78 0 78zm-382 113c81 89 231 89 313 0z" fill="#ffffff" opacity="1" data-original="#000000" class=""></path></g></svg>