<svg xmlns="http://www.w3.org/2000/svg" version="1.1" xmlns:xlink="http://www.w3.org/1999/xlink" width="512" height="512" x="0" y="0" viewBox="0 0 64 64" style="enable-background:new 0 0 512 512" xml:space="preserve" class=""><g><path d="M15 38a9 9 0 1 0 9 9 9.01 9.01 0 0 0-9-9Zm0 16a7 7 0 1 1 7-7 7.008 7.008 0 0 1-7 7Zm46.37-10.985.006-.002-7.698-25.584a9.023 9.023 0 0 0-2.775-4.272l-.836-2.777A6.134 6.134 0 0 0 44.16 6 6.154 6.154 0 0 0 38 12.16v2.233a8.977 8.977 0 0 0-1.825 3.957c-.08-.014-.164-.025-.245-.038a3.988 3.988 0 0 0-7.86 0c-.081.013-.166.024-.245.038A8.977 8.977 0 0 0 26 14.394V12.16A6.154 6.154 0 0 0 19.84 6a6.135 6.135 0 0 0-5.907 4.382l-.836 2.776a9.023 9.023 0 0 0-2.774 4.27L2.624 43.014l.007.002A12.998 12.998 0 1 0 28 47V36.673a11.165 11.165 0 0 1 1.656-.447 3.936 3.936 0 0 0 4.688 0 11.173 11.173 0 0 1 1.656.447V47a13 13 0 1 0 25.37-3.985ZM41.216 9.217A4.19 4.19 0 0 1 44.16 8a4.145 4.145 0 0 1 3.992 2.958l.203.673A9.083 9.083 0 0 0 45.03 11 8.96 8.96 0 0 0 40 12.548v-.388a4.19 4.19 0 0 1 1.217-2.943ZM36.648 34.78a12.797 12.797 0 0 0-.942-.291A3.968 3.968 0 0 0 36 33v-1.685a24.527 24.527 0 0 1 3.547.822 11.838 11.838 0 0 0-2.899 2.642ZM36 29.291v-8.948a14.918 14.918 0 0 1 4.052 1.272l.804 8.845A25.997 25.997 0 0 0 36 29.29ZM32 17a2.002 2.002 0 0 1 2 2v10.556a3.872 3.872 0 0 0-4 0V19a2.002 2.002 0 0 1 2-2Zm-7.547 15.137A24.527 24.527 0 0 1 28 31.315V33a3.968 3.968 0 0 0 .294 1.488c-.365.098-.686.2-.942.291a11.838 11.838 0 0 0-2.9-2.642ZM28 29.291a25.997 25.997 0 0 0-4.856 1.169l.804-8.846A14.921 14.921 0 0 1 28 20.343ZM15.847 10.96A4.146 4.146 0 0 1 19.84 8 4.155 4.155 0 0 1 24 12.16v.388A8.96 8.96 0 0 0 18.97 11a9.081 9.081 0 0 0-3.325.63ZM15 58a11 11 0 1 1 11-11 11.012 11.012 0 0 1-11 11Zm0-24a12.932 12.932 0 0 0-8.547 3.229l5.785-19.224a7.021 7.021 0 0 1 13.635.77 12.935 12.935 0 0 0-3.427 1.393 1.001 1.001 0 0 0-.442.742l-1 11a1.004 1.004 0 0 0 .677 1.038A9.91 9.91 0 0 1 26 36.32v3.784A12.99 12.99 0 0 0 15 34Zm17 1a2 2 0 1 1 2-2 2.002 2.002 0 0 1-2 2Zm6 1.32a9.912 9.912 0 0 1 4.316-3.371 1 1 0 0 0 .68-1.04l-1-11a1.001 1.001 0 0 0-.442-.741 12.935 12.935 0 0 0-3.427-1.392 7.021 7.021 0 0 1 13.636-.77l5.784 19.223A12.948 12.948 0 0 0 38 40.104ZM49 58a11 11 0 1 1 11-11 11.012 11.012 0 0 1-11 11Zm0-20a9 9 0 1 0 9 9 9.01 9.01 0 0 0-9-9Zm0 16a7 7 0 1 1 7-7 7.008 7.008 0 0 1-7 7Z" data-name="15-Binoculars" fill="#ffffff" opacity="1" data-original="#000000" class=""></path></g></svg>