<svg xmlns="http://www.w3.org/2000/svg" version="1.1" xmlns:xlink="http://www.w3.org/1999/xlink" width="512" height="512" x="0" y="0" viewBox="0 0 512 512" style="enable-background:new 0 0 512 512" xml:space="preserve" class=""><g><path d="M492 0H20C8.953 0 0 8.953 0 20v339.996c0 11.047 8.953 20 20 20h199.566L155.13 481.262c-5.934 9.316-3.188 21.68 6.133 27.61 9.281 5.901 21.656 3.226 27.613-6.138L256 397.25l67.129 105.484c5.945 9.348 18.312 12.051 27.61 6.137 9.316-5.93 12.066-18.293 6.136-27.61L292.434 380H492c11.047 0 20-8.953 20-20V20c0-11.047-8.953-20-20-20zm-20 339.996H40V40h432zm-363.477-55.855c-7.808-7.813-7.808-20.477 0-28.286l106.668-106.667c7.809-7.805 20.477-7.805 28.286 0l39.191 39.195 92.52-92.528c7.812-7.808 20.476-7.808 28.285 0 7.812 7.813 7.812 20.477 0 28.286L296.809 230.809c-7.809 7.808-20.477 7.804-28.286 0l-39.187-39.192-92.527 92.524c-7.809 7.808-20.473 7.812-28.286 0zm0 0" fill="#ffffff" opacity="1" data-original="#000000" class=""></path></g></svg>